<svg width="24" height="24" viewBox="0 0 24 24" fill="none" xmlns="http://www.w3.org/2000/svg">
<g id="document/7">
<path id="Icon" d="M7.2 22V21.165V22ZM16.8 22V22.835V22ZM20 18.8H19.165H20ZM20 5.2H20.835H20ZM19.782 3.09202L20.526 2.71294V2.71294L19.782 3.09202ZM16.8 2V1.165V2ZM18.908 2.21799L19.2871 1.474L19.2871 1.474L18.908 2.21799ZM18.908 21.782L19.2871 22.526L18.908 21.782ZM19.782 20.908L19.038 20.5289H19.038L19.782 20.908ZM5.09202 21.782L5.4711 21.038H5.4711L5.09202 21.782ZM4 18.8H3.165H4ZM4.21799 20.908L4.96198 20.5289H4.96198L4.21799 20.908ZM4.835 8C4.835 7.53884 4.46116 7.165 4 7.165C3.53884 7.165 3.165 7.53884 3.165 8H4.835ZM10 1.165C9.53884 1.165 9.165 1.53884 9.165 2C9.165 2.46116 9.53884 2.835 10 2.835V1.165ZM4.17071 7.82929L3.58028 7.23886L4.17071 7.82929ZM9.82929 2.17071L10.4197 2.76115L9.82929 2.17071ZM4.24142 8L4.24142 8.835L4.24142 8ZM9 8V7.165V8ZM10 7H9.165H10ZM10 2.24142H10.835V2.24142L10 2.24142ZM8 11.165C7.53884 11.165 7.165 11.5388 7.165 12C7.165 12.4612 7.53884 12.835 8 12.835V11.165ZM16 12.835C16.4612 12.835 16.835 12.4612 16.835 12C16.835 11.5388 16.4612 11.165 16 11.165V12.835ZM14 7.165C13.5388 7.165 13.165 7.53884 13.165 8C13.165 8.46116 13.5388 8.835 14 8.835V7.165ZM16 8.835C16.4612 8.835 16.835 8.46116 16.835 8C16.835 7.53884 16.4612 7.165 16 7.165V8.835ZM8 15.165C7.53884 15.165 7.165 15.5388 7.165 16C7.165 16.4612 7.53884 16.835 8 16.835V15.165ZM16 16.835C16.4612 16.835 16.835 16.4612 16.835 16C16.835 15.5388 16.4612 15.165 16 15.165V16.835ZM7.2 22.835H16.8V21.165H7.2V22.835ZM20.835 18.8V5.2H19.165V18.8H20.835ZM20.835 5.2C20.835 4.65373 20.8356 4.1938 20.805 3.81841C20.7735 3.43327 20.705 3.06418 20.526 2.71294L19.038 3.4711C19.077 3.54768 19.1175 3.67253 19.1405 3.9544C19.1644 4.24601 19.165 4.62617 19.165 5.2H20.835ZM16.8 2.835C17.3738 2.835 17.754 2.83565 18.0456 2.85948C18.3275 2.8825 18.4523 2.92296 18.5289 2.96198L19.2871 1.474C18.9358 1.29503 18.5667 1.22649 18.1816 1.19502C17.8062 1.16435 17.3463 1.165 16.8 1.165V2.835ZM20.526 2.71294C20.2542 2.17949 19.8205 1.7458 19.2871 1.474L18.5289 2.96198C18.7481 3.07367 18.9263 3.25189 19.038 3.4711L20.526 2.71294ZM16.8 22.835C17.3463 22.835 17.8062 22.8356 18.1816 22.805C18.5667 22.7735 18.9358 22.705 19.2871 22.526L18.5289 21.038C18.4523 21.077 18.3275 21.1175 18.0456 21.1405C17.754 21.1644 17.3738 21.165 16.8 21.165V22.835ZM19.165 18.8C19.165 19.3738 19.1644 19.754 19.1405 20.0456C19.1175 20.3275 19.077 20.4523 19.038 20.5289L20.526 21.2871C20.705 20.9358 20.7735 20.5667 20.805 20.1816C20.8356 19.8062 20.835 19.3463 20.835 18.8H19.165ZM19.2871 22.526C19.8205 22.2542 20.2542 21.8205 20.526 21.2871L19.038 20.5289C18.9263 20.7481 18.7481 20.9263 18.5289 21.038L19.2871 22.526ZM7.2 21.165C6.62617 21.165 6.24601 21.1644 5.9544 21.1405C5.67253 21.1175 5.54768 21.077 5.4711 21.038L4.71294 22.526C5.06418 22.705 5.43327 22.7735 5.81841 22.805C6.1938 22.8356 6.65373 22.835 7.2 22.835V21.165ZM3.165 18.8C3.165 19.3463 3.16435 19.8062 3.19502 20.1816C3.22649 20.5667 3.29503 20.9358 3.474 21.2871L4.96198 20.5289C4.92296 20.4523 4.88251 20.3275 4.85948 20.0456C4.83565 19.754 4.835 19.3738 4.835 18.8H3.165ZM5.4711 21.038C5.25189 20.9263 5.07367 20.7481 4.96198 20.5289L3.474 21.2871C3.7458 21.8205 4.1795 22.2542 4.71294 22.526L5.4711 21.038ZM3.165 8L3.165 18.8H4.835L4.835 8H3.165ZM16.8 1.165L10 1.165V2.835L16.8 2.835V1.165ZM4.76115 8.41973L10.4197 2.76115L9.23886 1.58028L3.58028 7.23886L4.76115 8.41973ZM4.24142 8.835L9 8.835V7.165L4.24142 7.165L4.24142 8.835ZM10.835 7V2.24142H9.165V7H10.835ZM9 8.835C10.0134 8.835 10.835 8.01344 10.835 7H9.165C9.165 7.09113 9.09113 7.165 9 7.165V8.835ZM10.4197 2.76115C9.9567 3.22417 9.165 2.89624 9.165 2.24142L10.835 2.24142C10.835 1.40842 9.82787 0.991263 9.23886 1.58028L10.4197 2.76115ZM3.58028 7.23886C2.99126 7.82787 3.40843 8.835 4.24142 8.835L4.24142 7.165C4.89624 7.165 5.22417 7.9567 4.76115 8.41973L3.58028 7.23886ZM8 12.835H16V11.165H8V12.835ZM14 8.835H16V7.165H14V8.835ZM8 16.835H16V15.165H8V16.835Z" fill="#437EF7"/>
</g>
</svg>
